Coordinates
version=1
nRows=21
nColumns=12
inDegrees=yes

Units are S.I. units (second, meters, Newtons, ...)
Angles are in degrees

endheader
time	SC_y	SC_z	SC_x	AC_y	AC_z	AC_x	GH_y	GH_z	GH_yy	EL_x	PS_y
       0.0              -15.09          22.06           77.1          36.96          4.473          19.65         -79.89          68.85          80.98          122.1          55.79
   0.03693               -15.1          22.06          77.09          36.96          4.473          19.65         -79.88          68.85          80.95          122.1          55.78
   0.07385               -15.1          22.06          77.08          36.96          4.474          19.65         -79.87          68.84          80.93          122.1          55.78
    0.1108              -15.11          22.06          77.08          36.97          4.474          19.65         -79.85          68.83           80.9          122.1          55.77
    0.1477              -15.12          22.06          77.07          36.97          4.474          19.65         -79.84          68.83          80.87          122.1          55.76
    0.1846              -15.12          22.06          77.06          36.97          4.475          19.65         -79.82          68.82          80.84          122.1          55.76
    0.2216              -15.13          22.06          77.05          36.97          4.475          19.65         -79.81          68.81          80.81          122.1          55.75
    0.2585              -15.14          22.06          77.03          36.98          4.476          19.65         -79.79           68.8          80.77          122.1          55.74
    0.2954              -15.15          22.06          77.02          36.98          4.476          19.65         -79.78          68.79          80.73          122.1          55.73
    0.3323              -15.15          22.05          77.01          36.98          4.477          19.65         -79.76          68.78          80.69          122.1          55.73
    0.3693              -15.16          22.05           77.0          36.98          4.477          19.65         -79.74          68.76          80.65          122.1          55.72
    0.4062              -15.17          22.05          76.98          36.99          4.478          19.65         -79.71          68.75           80.6          122.1          55.71
    0.4431              -15.18          22.05          76.96          36.99          4.479          19.65         -79.69          68.74          80.55          122.0          55.69
      0.48               -15.2          22.05          76.95           37.0          4.479          19.65         -79.67          68.72          80.49          122.0          55.68
     0.517              -15.21          22.05          76.93           37.0           4.48          19.65         -79.64          68.71          80.43          122.0          55.67
    0.5539              -15.22          22.04          76.91           37.0          4.481          19.65         -79.61          68.69          80.37          122.0          55.66
    0.5908              -15.24          22.04          76.89          37.01          4.482          19.65         -79.58          68.67           80.3          122.0          55.64
    0.6277              -15.25          22.04          76.86          37.02          4.483          19.65         -79.54          68.65          80.22          122.0          55.62
    0.6647              -15.27          22.04          76.83          37.02          4.484          19.65          -79.5          68.63          80.14          122.0          55.61
    0.7016              -15.29          22.03          76.81          37.03          4.485          19.64         -79.46           68.6          80.04          122.0          55.59
    0.7385              -15.31          22.03          76.77          37.03          4.486          19.64         -79.41          68.57          79.94          121.9          55.56
